<svg width="80" height="80" viewBox="0 0 80 80" fill="none" xmlns="http://www.w3.org/2000/svg">
<g id="fit" clip-path="url(#clip0_14_266)">
<g id="Group">
<path id="Vector" d="M79.8172 34.2238L69.0914 8.58815C68.2416 6.55706 66.2519 5.2344 64.0462 5.2344H61.6527C58.8731 5.2344 56.62 7.483 56.62 10.2567C56.62 13.0305 58.8733 15.2791 61.6527 15.2791H61.9078L67.433 30.3461C62.5292 26.9758 57.575 27.0422 52.5731 30.3461H40.7494C46.1645 29.9682 50.5292 25.4614 50.5292 19.8361V14.9924C50.5292 9.18112 45.8058 4.45331 39.9997 4.45331H28.2917C26.9984 4.45331 25.9502 5.50268 25.9502 6.79706C25.9502 8.09143 26.9986 9.14081 28.2917 9.14081H29.4703V19.7013C29.4703 25.2916 33.8 29.9466 39.2363 30.3461H27.4264C22.4245 27.0422 17.4703 26.9758 12.5666 30.3461L18.0917 15.2791H18.3469C21.1264 15.2791 23.3795 13.0305 23.3795 10.2567C23.3795 7.483 21.1263 5.2344 18.3469 5.2344H15.9534C13.7478 5.2344 11.7583 6.55706 10.9084 8.58815L0.182503 34.2238C-0.132341 34.9761 -0.0367162 35.8408 0.44219 36.5008C4.84485 42.5674 11.5755 45.4432 20.4266 45.413L26.5794 65.5107V73.9844C26.5794 74.8474 27.2783 75.5469 28.1405 75.5469H51.8594C52.7216 75.5469 53.4205 74.8474 53.4205 73.9844V65.5107L59.5733 45.413C68.4244 45.4432 75.155 42.5672 79.5577 36.5008C80.0364 35.8408 80.1319 34.9761 79.8172 34.2238ZM43.1142 67.5782H36.87C35.5767 67.5782 34.5284 66.5288 34.5284 65.2344C34.5284 63.94 35.5769 62.8907 36.87 62.8907H43.1142C44.4075 62.8907 45.4558 63.94 45.4558 65.2344C45.4558 66.5288 44.4075 67.5782 43.1142 67.5782ZM45.4636 58.2032H34.5439C33.2506 58.2032 32.2023 57.1538 32.2023 55.8594C32.2023 54.565 33.2508 53.5157 34.5439 53.5157H45.4636C46.7569 53.5157 47.8052 54.565 47.8052 55.8594C47.8052 57.1538 46.7569 58.2032 45.4636 58.2032Z" fill="#E2181A"/>
</g>
</g>
<defs>
<clipPath id="clip0_14_266">
<rect width="80" height="80" fill="white"/>
</clipPath>
</defs>
</svg>
