<svg width="80" height="80" viewBox="0 0 80 80" fill="none" xmlns="http://www.w3.org/2000/svg">
<g id="grafico">
<g id="Group">
<path id="Vector" d="M39.3731 80H33.1231C30.0214 80 27.4981 77.4767 27.4981 74.375V35.625C27.4981 32.5233 30.0214 30 33.1231 30H39.3731C42.4748 30 44.9981 32.5233 44.9981 35.625V74.375C44.9981 77.4767 42.4747 80 39.3731 80Z" fill="#E2181A"/>
<path id="Vector_2" d="M15.6231 80H9.37311C6.27139 80 3.74811 77.4767 3.74811 74.375V48.125C3.74811 45.0233 6.27139 42.5 9.37311 42.5H15.6231C18.7248 42.5 21.2481 45.0233 21.2481 48.125V74.375C21.2481 77.4767 18.7247 80 15.6231 80Z" fill="#E2181A"/>
<path id="Vector_3" d="M63.1231 80H56.8731C53.7714 80 51.2481 77.4767 51.2481 74.375V22.5H47.8137C46.2081 22.5 44.7937 21.5938 44.1228 20.135C43.4519 18.6763 43.6842 17.0128 44.7292 15.7936C44.7411 15.7797 44.7533 15.7658 44.7655 15.7522L58.1362 0.831563C58.6105 0.302344 59.2875 0 59.9981 0C60.7087 0 61.3856 0.302344 61.86 0.831563L75.2308 15.7522C75.2431 15.7658 75.2552 15.7797 75.267 15.7936C76.312 17.0127 76.5444 18.6763 75.8734 20.135C75.2025 21.5938 73.7881 22.5 72.1825 22.5H68.7481V74.375C68.7481 77.4767 66.2247 80 63.1231 80Z" fill="#E2181A"/>
</g>
</g>
</svg>
